<svg xmlns="http://www.w3.org/2000/svg" width="120.5" height="97" viewBox="0 0 120.5 97">
  <g id="Group_104" data-name="Group 104" transform="translate(-821 -1322)">
    <g id="briefcase" transform="translate(849.111 1321.5)">
      <rect id="Rectangle_57" data-name="Rectangle 57" width="88" height="61" rx="2" transform="translate(1.889 20.5)" fill="none" stroke="#333" stroke-linecap="round" stroke-linejoin="round" stroke-width="5"/>
      <path id="Path_22" data-name="Path 22" d="M43.111,82V11.778A8.778,8.778,0,0,0,34.333,3H16.778A8.778,8.778,0,0,0,8,11.778V82" transform="translate(20.333 0)" fill="none" stroke="#333" stroke-linecap="round" stroke-linejoin="round" stroke-width="5"/>
    </g>
    <g id="Group_102" data-name="Group 102" transform="translate(361 -4519)">
      <g id="Group_96" data-name="Group 96" transform="translate(30 3)">
        <g id="Union_2" data-name="Union 2" transform="translate(432 5920)" fill="#fff">
          <path d="M 21.99959945678711 10.99970054626465 C 16.20948028564453 10.99970054626465 10.77833938598633 10.38821983337402 6.706639766693115 9.277900695800781 C 4.812149524688721 8.761290550231934 3.278239488601685 8.144869804382324 2.270729541778564 7.495270252227783 C 1.451289534568787 6.966920375823975 0.9999995827674866 6.436000347137451 0.9999995827674866 6.000300407409668 L 0.9999995827674866 0.9999002814292908 L 21.99959945678711 1.000000238418579 L 43.00019836425781 1.000000238418579 L 43.00009918212891 6.000300407409668 C 43.00009918212891 6.857160091400146 41.23553085327148 8.202939987182617 37.29335784912109 9.277900695800781 C 33.22153854370117 10.38821983337402 27.79010963439941 10.99970054626465 21.99959945678711 10.99970054626465 Z" stroke="none"/>
          <path d="M 21.99959945678711 9.999700546264648 C 27.30661964416504 9.999700546264648 32.37525939941406 9.47057056427002 36.27182006835938 8.509790420532227 C 38.05950927734375 8.069000244140625 39.56354904174805 7.541160106658936 40.6213493347168 6.983330249786377 C 41.65902709960938 6.43612003326416 41.94284439086914 6.035831928253174 42.00009918212891 5.93842601776123 L 42.00009918212891 2.000000238418579 L 1.999999642372131 2.000000238418579 L 1.999999642372131 5.938426494598389 C 2.057254076004028 6.035831928253174 2.341069221496582 6.43612003326416 3.378719568252563 6.983330249786377 C 4.43649959564209 7.541160106658936 5.940509796142578 8.069000244140625 7.7281494140625 8.509790420532227 C 11.62457942962646 9.47057056427002 16.69294929504395 9.999700546264648 21.99959945678711 9.999700546264648 M 21.99959945678711 11.99970054626465 C 9.849599838256836 11.99970054626465 -4.089355343239731e-07 9.31410026550293 -4.089355343239731e-07 6.000300407409668 L -4.089355343239731e-07 0.9999002814292908 C -4.089355343239731e-07 0.4473002851009369 0.447299599647522 2.731323149873788e-07 0.9998995661735535 2.731323149873788e-07 L 43.00019836425781 2.731323149873788e-07 C 43.55189895629883 2.731323149873788e-07 44.00009918212891 0.4473002851009369 44.00009918212891 0.9999002814292908 L 44.00009918212891 6.000300407409668 C 44.00009918212891 9.31410026550293 34.1505012512207 11.99970054626465 21.99959945678711 11.99970054626465 Z" stroke="none" fill="#333"/>
        </g>
        <g id="Ellipse_5" data-name="Ellipse 5" transform="translate(432 5915)" fill="#fff" stroke="#333" stroke-width="2">
          <ellipse cx="22" cy="6" rx="22" ry="6" stroke="none"/>
          <ellipse cx="22" cy="6" rx="21" ry="5" fill="none"/>
        </g>
        <g id="dollar-sign_1_" data-name="dollar-sign (1)" transform="translate(440.986 5918.018)">
          <g id="Line_56" data-name="Line 56" transform="translate(0 2.56)" fill="none" stroke-linecap="round" stroke-linejoin="round">
            <path d="M1.014.423h22" stroke="none"/>
            <path d="M 24.0135498046875 0.4228515625 C 24.01167297363281 0.4811933636665344 23.98191261291504 0.5367568731307983 23.92970848083496 0.5872803926467896 C 23.87752151489258 0.637790322303772 23.80290031433105 0.683265745639801 23.71128273010254 0.7214480638504028 C 23.61968421936035 0.7596225142478943 23.51108741760254 0.7905097603797913 23.39091491699219 0.8118522763252258 C 23.2707576751709 0.8331923484802246 23.13901710510254 0.8449919819831848 23.0011043548584 0.8449919819831848 L 1.025997519493103 0.8449919819831848 C 0.888083815574646 0.8449919819831848 0.7563411593437195 0.8331923484802246 0.6361830234527588 0.8118522763252258 C 0.5160112977027893 0.7905097603797913 0.4074144065380096 0.7596225142478943 0.3158155381679535 0.7214480638504028 C 0.2241978794336319 0.683265745639801 0.1495782285928726 0.637790322303772 0.09739008545875549 0.5872803926467896 C 0.04518780112266541 0.5367568731307983 0.01542654726654291 0.4811933636665344 0.0135498046875 0.4228515625 C 0.01167253404855728 0.3644914925098419 0.03787452355027199 0.3088766932487488 0.08687613904476166 0.2582776546478271 C 0.1358910501003265 0.2076648473739624 0.2077151834964752 0.1620732843875885 0.2970590591430664 0.1237762868404388 C 0.3864212930202484 0.08547142893075943 0.4933035373687744 0.05446714162826538 0.6124054789543152 0.03303781896829605 C 0.7315211892127991 0.01160606276243925 0.8628473281860352 -0.0002463270211592317 1.001073837280273 -0.0002463270211592317 L 23.02602386474609 -0.0002463270211592317 C 23.16424942016602 -0.0002463270211592317 23.29557800292969 0.01160606276243925 23.41469383239746 0.03303781896829605 C 23.5337963104248 0.05446714162826538 23.64067840576172 0.08547142893075943 23.73003768920898 0.1237762868404388 C 23.81938362121582 0.1620732843875885 23.89120864868164 0.2076648473739624 23.94022369384766 0.2582776546478271 C 23.98922538757324 0.3088766932487488 24.01542663574219 0.3644914925098419 24.0135498046875 0.4228515625 Z" stroke="none" fill="#333"/>
          </g>
          <g id="Path_23" data-name="Path 23" transform="translate(3.95)" fill="none" stroke-linecap="round" stroke-linejoin="round">
            <path d="M1.024.857l.06,3.179a.83.83,0,0,0,.285.572,2.41,2.41,0,0,0,.754.465,5.322,5.322,0,0,0,1.11.313A7.812,7.812,0,0,0,4.588,5.5,7.775,7.775,0,0,0,5.94,5.386a5.243,5.243,0,0,0,1.1-.313,2.351,2.351,0,0,0,.746-.465.813.813,0,0,0,.274-.572V1.923a.828.828,0,0,1,.276-.58A2.382,2.382,0,0,1,9.095.868,5.293,5.293,0,0,1,10.216.547a8.04,8.04,0,0,1,2.743,0,5.214,5.214,0,0,1,1.115.321,2.322,2.322,0,0,1,.746.475.811.811,0,0,1,.265.58L15.017,5.5" stroke="none"/>
            <path d="M 16.08667755126953 1.922723174095154 L 16.00994682312012 5.500863075256348 C 16.00871086120605 5.55842113494873 15.97974967956543 5.613237380981445 15.92844486236572 5.663081645965576 C 15.87715530395508 5.712912559509277 15.80352878570557 5.757776260375977 15.71294116973877 5.795444011688232 C 15.6223726272583 5.833105087280273 15.51484107971191 5.863577365875244 15.39570903778076 5.884632110595703 C 15.27659320831299 5.905685424804688 15.14586734771729 5.9173264503479 15.00888442993164 5.9173264503479 C 14.871901512146 5.9173264503479 14.74161148071289 5.905685424804688 14.62328147888184 5.884632110595703 C 14.5049409866333 5.863577365875244 14.39855098724365 5.833105087280273 14.30939865112305 5.795444011688232 C 14.22022342681885 5.757776260375977 14.14828109741211 5.712912559509277 14.09886169433594 5.663081645965576 C 14.04942607879639 5.613237380981445 14.02252292633057 5.55842113494873 14.0234489440918 5.500863075256348 L 14.08099746704102 1.922723174095154 C 14.08335494995117 1.776190876960754 14.01525974273682 1.636382460594177 13.89010143280029 1.509065866470337 C 13.76486015319824 1.381662845611572 13.58250331878662 1.266786575317383 13.35648250579834 1.170222878456116 C 13.13034439086914 1.073609352111816 12.86054420471191 0.9953479170799255 12.56060791015625 0.9412316679954529 C 12.26058769226074 0.8870989680290222 11.93048667907715 0.857140064239502 11.58389568328857 0.857140064239502 C 11.23730659484863 0.857140064239502 10.90664672851562 0.8870989680290222 10.6056079864502 0.9412316679954529 C 10.30465602874756 0.9953479170799255 10.03338813781738 1.073610305786133 9.805438041687012 1.17022430896759 C 9.577605247497559 1.266788005828857 9.393088340759277 1.381664752960205 9.265456199645996 1.50906777381897 C 9.137911796569824 1.63638436794281 9.067191123962402 1.776192784309387 9.066797256469727 1.922723174095154 L 9.061134338378906 4.035833835601807 C 9.060434341430664 4.296334266662598 8.93412971496582 4.544353008270264 8.706671714782715 4.769762992858887 C 8.479489326477051 4.994900226593018 8.151344299316406 5.197535991668701 7.746490001678467 5.367601871490479 C 7.342010021209717 5.537512302398682 6.860819339752197 5.674970149993896 6.326963424682617 5.769926071166992 C 5.793380260467529 5.864833831787109 5.2069411277771 5.9173264503479 4.591494560241699 5.9173264503479 C 3.976048231124878 5.9173264503479 3.388624429702759 5.864833831787109 2.85326099395752 5.769926071166992 C 2.317622661590576 5.674970149993896 1.833852648735046 5.537512302398682 1.426182389259338 5.367601871490479 C 1.018137812614441 5.197535991668701 0.686190664768219 4.994900226593018 0.4547838866710663 4.769762992858887 C 0.2230961918830872 4.544353008270264 0.09213754534721375 4.296334266662598 0.08655115216970444 4.035833835601807 L 0.0183839239180088 0.857140064239502 C 0.01711795851588249 0.7981136441230774 0.04406244307756424 0.7418631315231323 0.09388259053230286 0.6906854510307312 C 0.1437163203954697 0.6394942998886108 0.2164364457130432 0.5933809876441956 0.3066976070404053 0.5546467304229736 C 0.3969779312610626 0.5159035325050354 0.5048003196716309 0.4845445156097412 0.6248102188110352 0.4628704786300659 C 0.7448340058326721 0.4411930739879608 0.8770356774330139 0.4292050898075104 1.016050696372986 0.4292050898075104 C 1.155065774917603 0.4292050898075104 1.287717342376709 0.4411930739879608 1.408553957939148 0.4628704786300659 C 1.529377937316895 0.4845445156097412 1.63837730884552 0.5159035325050354 1.730110883712769 0.5546467304229736 C 1.821826219558716 0.5933809876441956 1.896276712417603 0.6394942998886108 1.948031544685364 0.6906854510307312 C 1.999772191047668 0.7418631315231323 2.028827667236328 0.7981136441230774 2.029777050018311 0.857140064239502 L 2.080902814865112 4.035833835601807 C 2.083231210708618 4.180602073669434 2.155291557312012 4.318517208099365 2.283469200134277 4.443931102752686 C 2.411559104919434 4.569261074066162 2.595707416534424 4.682122707366943 2.822357892990112 4.776885032653809 C 3.048892736434937 4.871599674224854 3.317930221557617 4.948251724243164 3.615981817245483 5.001218318939209 C 3.913947343826294 5.054169654846191 4.240986824035645 5.083461761474609 4.583671092987061 5.083461761474609 C 4.926357269287109 5.083461761474609 5.252847671508789 5.054169654846191 5.549821376800537 5.001218318939209 C 5.846879005432129 4.948251724243164 6.114479541778564 4.871599674224854 6.339236259460449 4.776885032653809 C 6.564106941223145 4.682122707366943 6.746136665344238 4.569261074066162 6.871875286102295 4.443931102752686 C 6.997696876525879 4.318517208099365 7.067169666290283 4.180602073669434 7.066782474517822 4.035833835601807 L 7.061116695404053 1.922723174095154 C 7.060410499572754 1.658883571624756 7.186435699462891 1.406995534896851 7.415024280548096 1.1774822473526 C 7.643892765045166 0.9476874470710754 7.975520610809326 0.7403785586357117 8.385536193847656 0.5660396218299866 C 8.795931816101074 0.391538679599762 9.28471851348877 0.2501305937767029 9.827305793762207 0.1523213535547256 C 10.37017631530762 0.05446119606494904 10.96664905548096 0.0002922344719991088 11.59193515777588 0.0002922344719991088 C 12.21722030639648 0.0002922344719991088 12.81267738342285 0.05446119606494904 13.35371017456055 0.1523213535547256 C 13.89446067810059 0.2501305937767029 14.38059329986572 0.391538679599762 14.78771781921387 0.5660396218299866 C 15.1944637298584 0.7403785586357117 15.5221996307373 0.9476874470710754 15.7467565536499 1.1774822473526 C 15.97103881835938 1.406995534896851 16.09233856201172 1.658883571624756 16.08667755126953 1.922723174095154 Z" stroke="none" fill="#333"/>
          </g>
        </g>
      </g>
      <g id="Group_97" data-name="Group 97" transform="translate(32 -5)">
        <g id="Union_2-2" data-name="Union 2" transform="translate(432 5920)" fill="#fff">
          <path d="M 21.99959945678711 10.99970054626465 C 16.20948028564453 10.99970054626465 10.77833938598633 10.38821983337402 6.706639766693115 9.277900695800781 C 4.812149524688721 8.761290550231934 3.278239488601685 8.144869804382324 2.270729541778564 7.495270252227783 C 1.451289534568787 6.966920375823975 0.9999995827674866 6.436000347137451 0.9999995827674866 6.000300407409668 L 0.9999995827674866 0.9999002814292908 L 21.99959945678711 1.000000238418579 L 43.00019836425781 1.000000238418579 L 43.00009918212891 6.000300407409668 C 43.00009918212891 6.857160091400146 41.23553085327148 8.202939987182617 37.29335784912109 9.277900695800781 C 33.22153854370117 10.38821983337402 27.79010963439941 10.99970054626465 21.99959945678711 10.99970054626465 Z" stroke="none"/>
          <path d="M 21.99959945678711 9.999700546264648 C 27.30661964416504 9.999700546264648 32.37525939941406 9.47057056427002 36.27182006835938 8.509790420532227 C 38.05950927734375 8.069000244140625 39.56354904174805 7.541160106658936 40.6213493347168 6.983330249786377 C 41.65902709960938 6.43612003326416 41.94284439086914 6.035831928253174 42.00009918212891 5.93842601776123 L 42.00009918212891 2.000000238418579 L 1.999999642372131 2.000000238418579 L 1.999999642372131 5.938426494598389 C 2.057254076004028 6.035831928253174 2.341069221496582 6.43612003326416 3.378719568252563 6.983330249786377 C 4.43649959564209 7.541160106658936 5.940509796142578 8.069000244140625 7.7281494140625 8.509790420532227 C 11.62457942962646 9.47057056427002 16.69294929504395 9.999700546264648 21.99959945678711 9.999700546264648 M 21.99959945678711 11.99970054626465 C 9.849599838256836 11.99970054626465 -4.089355343239731e-07 9.31410026550293 -4.089355343239731e-07 6.000300407409668 L -4.089355343239731e-07 0.9999002814292908 C -4.089355343239731e-07 0.4473002851009369 0.447299599647522 2.731323149873788e-07 0.9998995661735535 2.731323149873788e-07 L 43.00019836425781 2.731323149873788e-07 C 43.55189895629883 2.731323149873788e-07 44.00009918212891 0.4473002851009369 44.00009918212891 0.9999002814292908 L 44.00009918212891 6.000300407409668 C 44.00009918212891 9.31410026550293 34.1505012512207 11.99970054626465 21.99959945678711 11.99970054626465 Z" stroke="none" fill="#333"/>
        </g>
        <g id="Ellipse_5-2" data-name="Ellipse 5" transform="translate(432 5915)" fill="#fff" stroke="#333" stroke-width="2">
          <ellipse cx="22" cy="6" rx="22" ry="6" stroke="none"/>
          <ellipse cx="22" cy="6" rx="21" ry="5" fill="none"/>
        </g>
        <g id="dollar-sign_1_2" data-name="dollar-sign (1)" transform="translate(440.987 5918.018)">
          <g id="Line_56-2" data-name="Line 56" transform="translate(0 2.559)" fill="none" stroke-linecap="round" stroke-linejoin="round">
            <path d="M1.014.423h22" stroke="none"/>
            <path d="M 24.0135498046875 0.4228515625 C 24.01167297363281 0.4811933636665344 23.98191261291504 0.5367568731307983 23.92970848083496 0.5872803926467896 C 23.87752151489258 0.637790322303772 23.80290031433105 0.683265745639801 23.71128273010254 0.7214480638504028 C 23.61968421936035 0.7596225142478943 23.51108741760254 0.7905097603797913 23.39091491699219 0.8118522763252258 C 23.2707576751709 0.8331923484802246 23.13901710510254 0.8449919819831848 23.0011043548584 0.8449919819831848 L 1.025997519493103 0.8449919819831848 C 0.888083815574646 0.8449919819831848 0.7563411593437195 0.8331923484802246 0.6361830234527588 0.8118522763252258 C 0.5160112977027893 0.7905097603797913 0.4074144065380096 0.7596225142478943 0.3158155381679535 0.7214480638504028 C 0.2241978794336319 0.683265745639801 0.1495782285928726 0.637790322303772 0.09739008545875549 0.5872803926467896 C 0.04518780112266541 0.5367568731307983 0.01542654726654291 0.4811933636665344 0.0135498046875 0.4228515625 C 0.01167253404855728 0.3644914925098419 0.03787452355027199 0.3088766932487488 0.08687613904476166 0.2582776546478271 C 0.1358910501003265 0.2076648473739624 0.2077151834964752 0.1620732843875885 0.2970590591430664 0.1237762868404388 C 0.3864212930202484 0.08547142893075943 0.4933035373687744 0.05446714162826538 0.6124054789543152 0.03303781896829605 C 0.7315211892127991 0.01160606276243925 0.8628473281860352 -0.0002463270211592317 1.001073837280273 -0.0002463270211592317 L 23.02602386474609 -0.0002463270211592317 C 23.16424942016602 -0.0002463270211592317 23.29557800292969 0.01160606276243925 23.41469383239746 0.03303781896829605 C 23.5337963104248 0.05446714162826538 23.64067840576172 0.08547142893075943 23.73003768920898 0.1237762868404388 C 23.81938362121582 0.1620732843875885 23.89120864868164 0.2076648473739624 23.94022369384766 0.2582776546478271 C 23.98922538757324 0.3088766932487488 24.01542663574219 0.3644914925098419 24.0135498046875 0.4228515625 Z" stroke="none" fill="#333"/>
          </g>
          <g id="Path_23-2" data-name="Path 23" transform="translate(3.95)" fill="none" stroke-linecap="round" stroke-linejoin="round">
            <path d="M1.024.857l.06,3.179a.83.83,0,0,0,.285.572,2.41,2.41,0,0,0,.754.465,5.322,5.322,0,0,0,1.11.313A7.812,7.812,0,0,0,4.588,5.5,7.775,7.775,0,0,0,5.94,5.386a5.243,5.243,0,0,0,1.1-.313,2.351,2.351,0,0,0,.746-.465.813.813,0,0,0,.274-.572V1.922a.828.828,0,0,1,.276-.58A2.382,2.382,0,0,1,9.095.867,5.293,5.293,0,0,1,10.216.547a8.04,8.04,0,0,1,2.743,0,5.214,5.214,0,0,1,1.115.321,2.322,2.322,0,0,1,.746.475.811.811,0,0,1,.265.58L15.017,5.5" stroke="none"/>
            <path d="M 16.08670806884766 1.922240257263184 L 16.00997543334961 5.500380992889404 C 16.00874137878418 5.557939052581787 15.97978019714355 5.612755298614502 15.92847537994385 5.662599086761475 C 15.8771858215332 5.712430477142334 15.80355834960938 5.757294178009033 15.71297168731689 5.794962406158447 C 15.62240314483643 5.83262300491333 15.51487159729004 5.863094806671143 15.39573955535889 5.884150505065918 C 15.27662372589111 5.905203342437744 15.14589691162109 5.916844367980957 15.00891399383545 5.916844367980957 C 14.87193202972412 5.916844367980957 14.7416410446167 5.905203342437744 14.62331199645996 5.884150505065918 C 14.50497150421143 5.863094806671143 14.39858150482178 5.83262300491333 14.30942821502686 5.794962406158447 C 14.22025394439697 5.757294178009033 14.14831161499023 5.712430477142334 14.09889125823975 5.662599086761475 C 14.04945659637451 5.612755298614502 14.02255344390869 5.557939052581787 14.02347946166992 5.500380992889404 L 14.08102798461914 1.922240257263184 C 14.08338642120361 1.775708198547363 14.01529026031494 1.635899662971497 13.89013195037842 1.508582830429077 C 13.76489067077637 1.381180167198181 13.58253383636475 1.266303658485413 13.35651302337646 1.169739842414856 C 13.13037490844727 1.073126673698425 12.86057472229004 0.9948651790618896 12.56063842773438 0.9407488703727722 C 12.26061916351318 0.886616051197052 11.93051719665527 0.8566571474075317 11.5839262008667 0.8566571474075317 C 11.23733806610107 0.8566571474075317 10.90667724609375 0.886616051197052 10.60563850402832 0.9407488703727722 C 10.30468654632568 0.9948651790618896 10.03341865539551 1.073127150535583 9.805469512939453 1.169741749763489 C 9.577635765075684 1.266305088996887 9.393118858337402 1.381182074546814 9.265486717224121 1.508585214614868 C 9.137942314147949 1.635901570320129 9.067221641540527 1.775709629058838 9.066827774047852 1.922240257263184 L 9.061163902282715 4.035351276397705 C 9.060464859008789 4.295852184295654 8.934160232543945 4.54387092590332 8.70670223236084 4.769280910491943 C 8.479519844055176 4.994417667388916 8.151374816894531 5.197054386138916 7.746520519256592 5.367119312286377 C 7.342040538787842 5.537030220031738 6.860849857330322 5.674488067626953 6.326993942260742 5.769443988800049 C 5.793410301208496 5.864351749420166 5.206971168518066 5.916844367980957 4.591525077819824 5.916844367980957 C 3.976078510284424 5.916844367980957 3.388654708862305 5.864351749420166 2.853291273117065 5.769443988800049 C 2.317652940750122 5.674488067626953 1.833882927894592 5.537030220031738 1.426212668418884 5.367119312286377 C 1.018168091773987 5.197054386138916 0.6862210035324097 4.994417667388916 0.4548142552375793 4.769280910491943 C 0.2231265753507614 4.54387092590332 0.09216795861721039 4.295852184295654 0.08658158779144287 4.035351276397705 L 0.01841461658477783 0.8566571474075317 C 0.01714865490794182 0.7976306676864624 0.04409314319491386 0.7413800954818726 0.09391329437494278 0.6902028322219849 C 0.1437470316886902 0.6390110850334167 0.2164671719074249 0.5928977131843567 0.306728333234787 0.5541638731956482 C 0.3970086574554443 0.51542067527771 0.504831075668335 0.4840611219406128 0.6248409152030945 0.4623875617980957 C 0.7448647618293762 0.4407100975513458 0.8770663738250732 0.4287221133708954 1.01608145236969 0.4287221133708954 C 1.155096411705017 0.4287221133708954 1.287747979164124 0.4407100975513458 1.408584713935852 0.4623875617980957 C 1.529408574104309 0.4840611219406128 1.638408064842224 0.51542067527771 1.730141639709473 0.5541638731956482 C 1.82185697555542 0.5928977131843567 1.896307468414307 0.6390110850334167 1.948062300682068 0.6902028322219849 C 1.999802947044373 0.7413800954818726 2.028858423233032 0.7976306676864624 2.029807567596436 0.8566571474075317 L 2.080933094024658 4.035351276397705 C 2.083261728286743 4.180119514465332 2.155322074890137 4.318035125732422 2.283499717712402 4.443449020385742 C 2.411589622497559 4.568778514862061 2.59573769569397 4.681640148162842 2.822388172149658 4.776402950286865 C 3.048923015594482 4.87111759185791 3.317960739135742 4.947769165039062 3.616012096405029 5.000736236572266 C 3.913977861404419 5.053687572479248 4.24101734161377 5.082979679107666 4.583701610565186 5.082979679107666 C 4.926387786865234 5.082979679107666 5.252878189086914 5.053687572479248 5.549851417541504 5.000736236572266 C 5.846909523010254 4.947769165039062 6.114509582519531 4.87111759185791 6.339266777038574 4.776402950286865 C 6.56413745880127 4.681640148162842 6.746167182922363 4.568778514862061 6.871905326843262 4.443449020385742 C 6.997727394104004 4.318035125732422 7.067200183868408 4.180119514465332 7.066812515258789 4.035351276397705 L 7.061147212982178 1.922240257263184 C 7.060441017150879 1.658401250839233 7.186466217041016 1.406512856483459 7.415054798126221 1.17699921131134 C 7.643923282623291 0.9472046494483948 7.975551128387451 0.7398955225944519 8.385566711425781 0.5655568242073059 C 8.795963287353516 0.3910556435585022 9.284749031066895 0.2496478706598282 9.827336311340332 0.1518384963274002 C 10.37020683288574 0.05397869646549225 10.96667957305908 -0.0001903369266074151 11.591965675354 -0.0001903369266074151 C 12.21725082397461 -0.0001903369266074151 12.81270885467529 0.05397869646549225 13.35374164581299 0.1518384963274002 C 13.89449214935303 0.2496478706598282 14.38062381744385 0.3910556435585022 14.78774929046631 0.5655568242073059 C 15.19449424743652 0.7398955225944519 15.52223014831543 0.9472046494483948 15.74678707122803 1.17699921131134 C 15.97107028961182 1.406512856483459 16.09236907958984 1.658401250839233 16.08670806884766 1.922240257263184 Z" stroke="none" fill="#333"/>
          </g>
        </g>
      </g>
      <g id="Group_98" data-name="Group 98" transform="translate(30 -13)">
        <g id="Union_2-3" data-name="Union 2" transform="translate(432 5920)" fill="#fff">
          <path d="M 21.99959945678711 10.99970054626465 C 16.20948028564453 10.99970054626465 10.77833938598633 10.38821983337402 6.706639766693115 9.277900695800781 C 4.812149524688721 8.761290550231934 3.278239488601685 8.144869804382324 2.270729541778564 7.495270252227783 C 1.451289534568787 6.966920375823975 0.9999995827674866 6.436000347137451 0.9999995827674866 6.000300407409668 L 0.9999995827674866 0.9999002814292908 L 21.99959945678711 1.000000238418579 L 43.00019836425781 1.000000238418579 L 43.00009918212891 6.000300407409668 C 43.00009918212891 6.857160091400146 41.23553085327148 8.202939987182617 37.29335784912109 9.277900695800781 C 33.22153854370117 10.38821983337402 27.79010963439941 10.99970054626465 21.99959945678711 10.99970054626465 Z" stroke="none"/>
          <path d="M 21.99959945678711 9.999700546264648 C 27.30661964416504 9.999700546264648 32.37525939941406 9.47057056427002 36.27182006835938 8.509790420532227 C 38.05950927734375 8.069000244140625 39.56354904174805 7.541160106658936 40.6213493347168 6.983330249786377 C 41.65902709960938 6.43612003326416 41.94284439086914 6.035831928253174 42.00009918212891 5.93842601776123 L 42.00009918212891 2.000000238418579 L 1.999999642372131 2.000000238418579 L 1.999999642372131 5.938426494598389 C 2.057254076004028 6.035831928253174 2.341069221496582 6.43612003326416 3.378719568252563 6.983330249786377 C 4.43649959564209 7.541160106658936 5.940509796142578 8.069000244140625 7.7281494140625 8.509790420532227 C 11.62457942962646 9.47057056427002 16.69294929504395 9.999700546264648 21.99959945678711 9.999700546264648 M 21.99959945678711 11.99970054626465 C 9.849599838256836 11.99970054626465 -4.089355343239731e-07 9.31410026550293 -4.089355343239731e-07 6.000300407409668 L -4.089355343239731e-07 0.9999002814292908 C -4.089355343239731e-07 0.4473002851009369 0.447299599647522 2.731323149873788e-07 0.9998995661735535 2.731323149873788e-07 L 43.00019836425781 2.731323149873788e-07 C 43.55189895629883 2.731323149873788e-07 44.00009918212891 0.4473002851009369 44.00009918212891 0.9999002814292908 L 44.00009918212891 6.000300407409668 C 44.00009918212891 9.31410026550293 34.1505012512207 11.99970054626465 21.99959945678711 11.99970054626465 Z" stroke="none" fill="#333"/>
        </g>
        <g id="Ellipse_5-3" data-name="Ellipse 5" transform="translate(432 5915)" fill="#fff" stroke="#333" stroke-width="2">
          <ellipse cx="22" cy="6" rx="22" ry="6" stroke="none"/>
          <ellipse cx="22" cy="6" rx="21" ry="5" fill="none"/>
        </g>
        <g id="dollar-sign_1_3" data-name="dollar-sign (1)" transform="translate(440.986 5918.018)">
          <g id="Line_56-3" data-name="Line 56" transform="translate(0 2.56)" fill="none" stroke-linecap="round" stroke-linejoin="round">
            <path d="M1.014.423h22" stroke="none"/>
            <path d="M 24.0135498046875 0.4228515625 C 24.01167297363281 0.4811933636665344 23.98191261291504 0.5367568731307983 23.92970848083496 0.5872803926467896 C 23.87752151489258 0.637790322303772 23.80290031433105 0.683265745639801 23.71128273010254 0.7214480638504028 C 23.61968421936035 0.7596225142478943 23.51108741760254 0.7905097603797913 23.39091491699219 0.8118522763252258 C 23.2707576751709 0.8331923484802246 23.13901710510254 0.8449919819831848 23.0011043548584 0.8449919819831848 L 1.025997519493103 0.8449919819831848 C 0.888083815574646 0.8449919819831848 0.7563411593437195 0.8331923484802246 0.6361830234527588 0.8118522763252258 C 0.5160112977027893 0.7905097603797913 0.4074144065380096 0.7596225142478943 0.3158155381679535 0.7214480638504028 C 0.2241978794336319 0.683265745639801 0.1495782285928726 0.637790322303772 0.09739008545875549 0.5872803926467896 C 0.04518780112266541 0.5367568731307983 0.01542654726654291 0.4811933636665344 0.0135498046875 0.4228515625 C 0.01167253404855728 0.3644914925098419 0.03787452355027199 0.3088766932487488 0.08687613904476166 0.2582776546478271 C 0.1358910501003265 0.2076648473739624 0.2077151834964752 0.1620732843875885 0.2970590591430664 0.1237762868404388 C 0.3864212930202484 0.08547142893075943 0.4933035373687744 0.05446714162826538 0.6124054789543152 0.03303781896829605 C 0.7315211892127991 0.01160606276243925 0.8628473281860352 -0.0002463270211592317 1.001073837280273 -0.0002463270211592317 L 23.02602386474609 -0.0002463270211592317 C 23.16424942016602 -0.0002463270211592317 23.29557800292969 0.01160606276243925 23.41469383239746 0.03303781896829605 C 23.5337963104248 0.05446714162826538 23.64067840576172 0.08547142893075943 23.73003768920898 0.1237762868404388 C 23.81938362121582 0.1620732843875885 23.89120864868164 0.2076648473739624 23.94022369384766 0.2582776546478271 C 23.98922538757324 0.3088766932487488 24.01542663574219 0.3644914925098419 24.0135498046875 0.4228515625 Z" stroke="none" fill="#333"/>
          </g>
          <g id="Path_23-3" data-name="Path 23" transform="translate(3.95)" fill="none" stroke-linecap="round" stroke-linejoin="round">
            <path d="M1.024.857l.06,3.179a.83.83,0,0,0,.285.572,2.41,2.41,0,0,0,.754.465,5.322,5.322,0,0,0,1.11.313A7.812,7.812,0,0,0,4.588,5.5,7.775,7.775,0,0,0,5.94,5.386a5.243,5.243,0,0,0,1.1-.313,2.351,2.351,0,0,0,.746-.465.813.813,0,0,0,.274-.572V1.923a.828.828,0,0,1,.276-.58A2.382,2.382,0,0,1,9.095.868,5.293,5.293,0,0,1,10.216.547a8.04,8.04,0,0,1,2.743,0,5.214,5.214,0,0,1,1.115.321,2.322,2.322,0,0,1,.746.475.811.811,0,0,1,.265.58L15.017,5.5" stroke="none"/>
            <path d="M 16.08667755126953 1.922723174095154 L 16.00994682312012 5.500863075256348 C 16.00871086120605 5.55842113494873 15.97974967956543 5.613237380981445 15.92844486236572 5.663081645965576 C 15.87715530395508 5.712912559509277 15.80352878570557 5.757776260375977 15.71294116973877 5.795444011688232 C 15.6223726272583 5.833105087280273 15.51484107971191 5.863577365875244 15.39570903778076 5.884632110595703 C 15.27659320831299 5.905685424804688 15.14586734771729 5.9173264503479 15.00888442993164 5.9173264503479 C 14.871901512146 5.9173264503479 14.74161148071289 5.905685424804688 14.62328147888184 5.884632110595703 C 14.5049409866333 5.863577365875244 14.39855098724365 5.833105087280273 14.30939865112305 5.795444011688232 C 14.22022342681885 5.757776260375977 14.14828109741211 5.712912559509277 14.09886169433594 5.663081645965576 C 14.04942607879639 5.613237380981445 14.02252292633057 5.55842113494873 14.0234489440918 5.500863075256348 L 14.08099746704102 1.922723174095154 C 14.08335494995117 1.776190876960754 14.01525974273682 1.636382460594177 13.89010143280029 1.509065866470337 C 13.76486015319824 1.381662845611572 13.58250331878662 1.266786575317383 13.35648250579834 1.170222878456116 C 13.13034439086914 1.073609352111816 12.86054420471191 0.9953479170799255 12.56060791015625 0.9412316679954529 C 12.26058769226074 0.8870989680290222 11.93048667907715 0.857140064239502 11.58389568328857 0.857140064239502 C 11.23730659484863 0.857140064239502 10.90664672851562 0.8870989680290222 10.6056079864502 0.9412316679954529 C 10.30465602874756 0.9953479170799255 10.03338813781738 1.073610305786133 9.805438041687012 1.17022430896759 C 9.577605247497559 1.266788005828857 9.393088340759277 1.381664752960205 9.265456199645996 1.50906777381897 C 9.137911796569824 1.63638436794281 9.067191123962402 1.776192784309387 9.066797256469727 1.922723174095154 L 9.061134338378906 4.035833835601807 C 9.060434341430664 4.296334266662598 8.93412971496582 4.544353008270264 8.706671714782715 4.769762992858887 C 8.479489326477051 4.994900226593018 8.151344299316406 5.197535991668701 7.746490001678467 5.367601871490479 C 7.342010021209717 5.537512302398682 6.860819339752197 5.674970149993896 6.326963424682617 5.769926071166992 C 5.793380260467529 5.864833831787109 5.2069411277771 5.9173264503479 4.591494560241699 5.9173264503479 C 3.976048231124878 5.9173264503479 3.388624429702759 5.864833831787109 2.85326099395752 5.769926071166992 C 2.317622661590576 5.674970149993896 1.833852648735046 5.537512302398682 1.426182389259338 5.367601871490479 C 1.018137812614441 5.197535991668701 0.686190664768219 4.994900226593018 0.4547838866710663 4.769762992858887 C 0.2230961918830872 4.544353008270264 0.09213754534721375 4.296334266662598 0.08655115216970444 4.035833835601807 L 0.0183839239180088 0.857140064239502 C 0.01711795851588249 0.7981136441230774 0.04406244307756424 0.7418631315231323 0.09388259053230286 0.6906854510307312 C 0.1437163203954697 0.6394942998886108 0.2164364457130432 0.5933809876441956 0.3066976070404053 0.5546467304229736 C 0.3969779312610626 0.5159035325050354 0.5048003196716309 0.4845445156097412 0.6248102188110352 0.4628704786300659 C 0.7448340058326721 0.4411930739879608 0.8770356774330139 0.4292050898075104 1.016050696372986 0.4292050898075104 C 1.155065774917603 0.4292050898075104 1.287717342376709 0.4411930739879608 1.408553957939148 0.4628704786300659 C 1.529377937316895 0.4845445156097412 1.63837730884552 0.5159035325050354 1.730110883712769 0.5546467304229736 C 1.821826219558716 0.5933809876441956 1.896276712417603 0.6394942998886108 1.948031544685364 0.6906854510307312 C 1.999772191047668 0.7418631315231323 2.028827667236328 0.7981136441230774 2.029777050018311 0.857140064239502 L 2.080902814865112 4.035833835601807 C 2.083231210708618 4.180602073669434 2.155291557312012 4.318517208099365 2.283469200134277 4.443931102752686 C 2.411559104919434 4.569261074066162 2.595707416534424 4.682122707366943 2.822357892990112 4.776885032653809 C 3.048892736434937 4.871599674224854 3.317930221557617 4.948251724243164 3.615981817245483 5.001218318939209 C 3.913947343826294 5.054169654846191 4.240986824035645 5.083461761474609 4.583671092987061 5.083461761474609 C 4.926357269287109 5.083461761474609 5.252847671508789 5.054169654846191 5.549821376800537 5.001218318939209 C 5.846879005432129 4.948251724243164 6.114479541778564 4.871599674224854 6.339236259460449 4.776885032653809 C 6.564106941223145 4.682122707366943 6.746136665344238 4.569261074066162 6.871875286102295 4.443931102752686 C 6.997696876525879 4.318517208099365 7.067169666290283 4.180602073669434 7.066782474517822 4.035833835601807 L 7.061116695404053 1.922723174095154 C 7.060410499572754 1.658883571624756 7.186435699462891 1.406995534896851 7.415024280548096 1.1774822473526 C 7.643892765045166 0.9476874470710754 7.975520610809326 0.7403785586357117 8.385536193847656 0.5660396218299866 C 8.795931816101074 0.391538679599762 9.28471851348877 0.2501305937767029 9.827305793762207 0.1523213535547256 C 10.37017631530762 0.05446119606494904 10.96664905548096 0.0002922344719991088 11.59193515777588 0.0002922344719991088 C 12.21722030639648 0.0002922344719991088 12.81267738342285 0.05446119606494904 13.35371017456055 0.1523213535547256 C 13.89446067810059 0.2501305937767029 14.38059329986572 0.391538679599762 14.78771781921387 0.5660396218299866 C 15.1944637298584 0.7403785586357117 15.5221996307373 0.9476874470710754 15.7467565536499 1.1774822473526 C 15.97103881835938 1.406995534896851 16.09233856201172 1.658883571624756 16.08667755126953 1.922723174095154 Z" stroke="none" fill="#333"/>
          </g>
        </g>
      </g>
      <g id="Group_99" data-name="Group 99" transform="translate(33 -19)">
        <g id="Union_2-4" data-name="Union 2" transform="translate(432 5920)" fill="#fff">
          <path d="M 21.99959945678711 10.99970054626465 C 16.20948028564453 10.99970054626465 10.77833938598633 10.38821983337402 6.706639766693115 9.277900695800781 C 4.812149524688721 8.761290550231934 3.278239488601685 8.144869804382324 2.270729541778564 7.495270252227783 C 1.451289534568787 6.966920375823975 0.9999995827674866 6.436000347137451 0.9999995827674866 6.000300407409668 L 0.9999995827674866 0.9999002814292908 L 21.99959945678711 1.000000238418579 L 43.00019836425781 1.000000238418579 L 43.00009918212891 6.000300407409668 C 43.00009918212891 6.857160091400146 41.23553085327148 8.202939987182617 37.29335784912109 9.277900695800781 C 33.22153854370117 10.38821983337402 27.79010963439941 10.99970054626465 21.99959945678711 10.99970054626465 Z" stroke="none"/>
          <path d="M 21.99959945678711 9.999700546264648 C 27.30661964416504 9.999700546264648 32.37525939941406 9.47057056427002 36.27182006835938 8.509790420532227 C 38.05950927734375 8.069000244140625 39.56354904174805 7.541160106658936 40.6213493347168 6.983330249786377 C 41.65902709960938 6.43612003326416 41.94284439086914 6.035831928253174 42.00009918212891 5.93842601776123 L 42.00009918212891 2.000000238418579 L 1.999999642372131 2.000000238418579 L 1.999999642372131 5.938426494598389 C 2.057254076004028 6.035831928253174 2.341069221496582 6.43612003326416 3.378719568252563 6.983330249786377 C 4.43649959564209 7.541160106658936 5.940509796142578 8.069000244140625 7.7281494140625 8.509790420532227 C 11.62457942962646 9.47057056427002 16.69294929504395 9.999700546264648 21.99959945678711 9.999700546264648 M 21.99959945678711 11.99970054626465 C 9.849599838256836 11.99970054626465 -4.089355343239731e-07 9.31410026550293 -4.089355343239731e-07 6.000300407409668 L -4.089355343239731e-07 0.9999002814292908 C -4.089355343239731e-07 0.4473002851009369 0.447299599647522 2.731323149873788e-07 0.9998995661735535 2.731323149873788e-07 L 43.00019836425781 2.731323149873788e-07 C 43.55189895629883 2.731323149873788e-07 44.00009918212891 0.4473002851009369 44.00009918212891 0.9999002814292908 L 44.00009918212891 6.000300407409668 C 44.00009918212891 9.31410026550293 34.1505012512207 11.99970054626465 21.99959945678711 11.99970054626465 Z" stroke="none" fill="#333"/>
        </g>
        <g id="Ellipse_5-4" data-name="Ellipse 5" transform="translate(432 5915)" fill="#fff" stroke="#333" stroke-width="2">
          <ellipse cx="22" cy="6" rx="22" ry="6" stroke="none"/>
          <ellipse cx="22" cy="6" rx="21" ry="5" fill="none"/>
        </g>
        <g id="dollar-sign_1_4" data-name="dollar-sign (1)" transform="translate(440.986 5918.018)">
          <g id="Line_56-4" data-name="Line 56" transform="translate(0 2.56)" fill="none" stroke-linecap="round" stroke-linejoin="round">
            <path d="M1.014.423h22" stroke="none"/>
            <path d="M 24.01361083984375 0.4228515625 C 24.01173400878906 0.4811933636665344 23.98197364807129 0.5367568731307983 23.92976951599121 0.5872803926467896 C 23.87758255004883 0.637790322303772 23.8029613494873 0.683265745639801 23.71134376525879 0.7214480638504028 C 23.6197452545166 0.7596225142478943 23.51114845275879 0.7905097603797913 23.39097595214844 0.8118522763252258 C 23.27081871032715 0.8331923484802246 23.13907814025879 0.8449919819831848 23.00116539001465 0.8449919819831848 L 1.026058673858643 0.8449919819831848 C 0.8881447911262512 0.8449919819831848 0.7564021348953247 0.8331923484802246 0.6362441182136536 0.8118522763252258 C 0.5160722732543945 0.7905097603797913 0.4074754118919373 0.7596225142478943 0.3158765733242035 0.7214480638504028 C 0.2242589443922043 0.683265745639801 0.1496392339468002 0.637790322303772 0.09745109081268311 0.5872803926467896 C 0.04524881765246391 0.5367568731307983 0.01548757310956717 0.4811933636665344 0.01361083984375 0.4228515625 C 0.01173357851803303 0.3644914925098419 0.03793557733297348 0.3088766932487488 0.08693720400333405 0.2582776546478271 C 0.1359521150588989 0.2076648473739624 0.2077761888504028 0.1620732843875885 0.2971200942993164 0.1237762868404388 C 0.3864823877811432 0.08547142893075943 0.4933645725250244 0.05446714162826538 0.6124666333198547 0.03303781896829605 C 0.7315822839736938 0.01160606276243925 0.8629083633422852 -0.0002463270211592317 1.001134872436523 -0.0002463270211592317 L 23.02608489990234 -0.0002463270211592317 C 23.16431045532227 -0.0002463270211592317 23.29563903808594 0.01160606276243925 23.41475486755371 0.03303781896829605 C 23.53385734558105 0.05446714162826538 23.64073944091797 0.08547142893075943 23.73009872436523 0.1237762868404388 C 23.81944465637207 0.1620732843875885 23.89126968383789 0.2076648473739624 23.94028472900391 0.2582776546478271 C 23.98928642272949 0.3088766932487488 24.01548767089844 0.3644914925098419 24.01361083984375 0.4228515625 Z" stroke="none" fill="#333"/>
          </g>
          <g id="Path_23-4" data-name="Path 23" transform="translate(3.95)" fill="none" stroke-linecap="round" stroke-linejoin="round">
            <path d="M1.024.857l.06,3.179a.83.83,0,0,0,.285.572,2.41,2.41,0,0,0,.754.465,5.322,5.322,0,0,0,1.11.313A7.812,7.812,0,0,0,4.588,5.5,7.775,7.775,0,0,0,5.94,5.386a5.243,5.243,0,0,0,1.1-.313,2.351,2.351,0,0,0,.746-.465.813.813,0,0,0,.274-.572V1.923a.828.828,0,0,1,.276-.58A2.382,2.382,0,0,1,9.095.868,5.293,5.293,0,0,1,10.216.547a8.04,8.04,0,0,1,2.743,0,5.214,5.214,0,0,1,1.115.321,2.322,2.322,0,0,1,.746.475.811.811,0,0,1,.265.58L15.017,5.5" stroke="none"/>
            <path d="M 16.08667755126953 1.922723174095154 L 16.00994682312012 5.500863075256348 C 16.00871086120605 5.55842113494873 15.97974967956543 5.613237380981445 15.92844486236572 5.663081645965576 C 15.87715530395508 5.712912559509277 15.80352878570557 5.757776260375977 15.71294116973877 5.795444011688232 C 15.6223726272583 5.833105087280273 15.51484107971191 5.863577365875244 15.39570903778076 5.884632110595703 C 15.27659320831299 5.905685424804688 15.14586734771729 5.9173264503479 15.00888442993164 5.9173264503479 C 14.871901512146 5.9173264503479 14.74161148071289 5.905685424804688 14.62328147888184 5.884632110595703 C 14.5049409866333 5.863577365875244 14.39855098724365 5.833105087280273 14.30939865112305 5.795444011688232 C 14.22022342681885 5.757776260375977 14.14828109741211 5.712912559509277 14.09886169433594 5.663081645965576 C 14.04942607879639 5.613237380981445 14.02252292633057 5.55842113494873 14.0234489440918 5.500863075256348 L 14.08099746704102 1.922723174095154 C 14.08335494995117 1.776190876960754 14.01525974273682 1.636382460594177 13.89010143280029 1.509065866470337 C 13.76486015319824 1.381662845611572 13.58250331878662 1.266786575317383 13.35648250579834 1.170222878456116 C 13.13034439086914 1.073609352111816 12.86054420471191 0.9953479170799255 12.56060791015625 0.9412316679954529 C 12.26058769226074 0.8870989680290222 11.93048667907715 0.857140064239502 11.58389568328857 0.857140064239502 C 11.23730659484863 0.857140064239502 10.90664672851562 0.8870989680290222 10.6056079864502 0.9412316679954529 C 10.30465602874756 0.9953479170799255 10.03338813781738 1.073610305786133 9.805438041687012 1.17022430896759 C 9.577605247497559 1.266788005828857 9.393088340759277 1.381664752960205 9.265456199645996 1.50906777381897 C 9.137911796569824 1.63638436794281 9.067191123962402 1.776192784309387 9.066797256469727 1.922723174095154 L 9.061134338378906 4.035833835601807 C 9.060434341430664 4.296334266662598 8.93412971496582 4.544353008270264 8.706671714782715 4.769762992858887 C 8.479489326477051 4.994900226593018 8.151344299316406 5.197535991668701 7.746490001678467 5.367601871490479 C 7.342010021209717 5.537512302398682 6.860819339752197 5.674970149993896 6.326963424682617 5.769926071166992 C 5.793380260467529 5.864833831787109 5.2069411277771 5.9173264503479 4.591494560241699 5.9173264503479 C 3.976048231124878 5.9173264503479 3.388624429702759 5.864833831787109 2.85326099395752 5.769926071166992 C 2.317622661590576 5.674970149993896 1.833852648735046 5.537512302398682 1.426182389259338 5.367601871490479 C 1.018137812614441 5.197535991668701 0.686190664768219 4.994900226593018 0.4547838866710663 4.769762992858887 C 0.2230961918830872 4.544353008270264 0.09213754534721375 4.296334266662598 0.08655115216970444 4.035833835601807 L 0.0183839239180088 0.857140064239502 C 0.01711795851588249 0.7981136441230774 0.04406244307756424 0.7418631315231323 0.09388259053230286 0.6906854510307312 C 0.1437163203954697 0.6394942998886108 0.2164364457130432 0.5933809876441956 0.3066976070404053 0.5546467304229736 C 0.3969779312610626 0.5159035325050354 0.5048003196716309 0.4845445156097412 0.6248102188110352 0.4628704786300659 C 0.7448340058326721 0.4411930739879608 0.8770356774330139 0.4292050898075104 1.016050696372986 0.4292050898075104 C 1.155065774917603 0.4292050898075104 1.287717342376709 0.4411930739879608 1.408553957939148 0.4628704786300659 C 1.529377937316895 0.4845445156097412 1.63837730884552 0.5159035325050354 1.730110883712769 0.5546467304229736 C 1.821826219558716 0.5933809876441956 1.896276712417603 0.6394942998886108 1.948031544685364 0.6906854510307312 C 1.999772191047668 0.7418631315231323 2.028827667236328 0.7981136441230774 2.029777050018311 0.857140064239502 L 2.080902814865112 4.035833835601807 C 2.083231210708618 4.180602073669434 2.155291557312012 4.318517208099365 2.283469200134277 4.443931102752686 C 2.411559104919434 4.569261074066162 2.595707416534424 4.682122707366943 2.822357892990112 4.776885032653809 C 3.048892736434937 4.871599674224854 3.317930221557617 4.948251724243164 3.615981817245483 5.001218318939209 C 3.913947343826294 5.054169654846191 4.240986824035645 5.083461761474609 4.583671092987061 5.083461761474609 C 4.926357269287109 5.083461761474609 5.252847671508789 5.054169654846191 5.549821376800537 5.001218318939209 C 5.846879005432129 4.948251724243164 6.114479541778564 4.871599674224854 6.339236259460449 4.776885032653809 C 6.564106941223145 4.682122707366943 6.746136665344238 4.569261074066162 6.871875286102295 4.443931102752686 C 6.997696876525879 4.318517208099365 7.067169666290283 4.180602073669434 7.066782474517822 4.035833835601807 L 7.061116695404053 1.922723174095154 C 7.060410499572754 1.658883571624756 7.186435699462891 1.406995534896851 7.415024280548096 1.1774822473526 C 7.643892765045166 0.9476874470710754 7.975520610809326 0.7403785586357117 8.385536193847656 0.5660396218299866 C 8.795931816101074 0.391538679599762 9.28471851348877 0.2501305937767029 9.827305793762207 0.1523213535547256 C 10.37017631530762 0.05446119606494904 10.96664905548096 0.0002922344719991088 11.59193515777588 0.0002922344719991088 C 12.21722030639648 0.0002922344719991088 12.81267738342285 0.05446119606494904 13.35371017456055 0.1523213535547256 C 13.89446067810059 0.2501305937767029 14.38059329986572 0.391538679599762 14.78771781921387 0.5660396218299866 C 15.1944637298584 0.7403785586357117 15.5221996307373 0.9476874470710754 15.7467565536499 1.1774822473526 C 15.97103881835938 1.406995534896851 16.09233856201172 1.658883571624756 16.08667755126953 1.922723174095154 Z" stroke="none" fill="#333"/>
          </g>
        </g>
      </g>
      <g id="Group_100" data-name="Group 100" transform="translate(28 -27)">
        <g id="Union_2-5" data-name="Union 2" transform="translate(432 5920)" fill="#fff">
          <path d="M 21.99959945678711 10.99970054626465 C 16.20948028564453 10.99970054626465 10.77833938598633 10.38821983337402 6.706639766693115 9.277900695800781 C 4.812149524688721 8.761290550231934 3.278239488601685 8.144869804382324 2.270729541778564 7.495270252227783 C 1.451289534568787 6.966920375823975 0.9999995827674866 6.436000347137451 0.9999995827674866 6.000300407409668 L 0.9999995827674866 0.9999002814292908 L 21.99959945678711 1.000000238418579 L 43.00019836425781 1.000000238418579 L 43.00009918212891 6.000300407409668 C 43.00009918212891 6.857160091400146 41.23553085327148 8.202939987182617 37.29335784912109 9.277900695800781 C 33.22153854370117 10.38821983337402 27.79010963439941 10.99970054626465 21.99959945678711 10.99970054626465 Z" stroke="none"/>
          <path d="M 21.99959945678711 9.999700546264648 C 27.30661964416504 9.999700546264648 32.37525939941406 9.47057056427002 36.27182006835938 8.509790420532227 C 38.05950927734375 8.069000244140625 39.56354904174805 7.541160106658936 40.6213493347168 6.983330249786377 C 41.65902709960938 6.43612003326416 41.94284439086914 6.035831928253174 42.00009918212891 5.93842601776123 L 42.00009918212891 2.000000238418579 L 1.999999642372131 2.000000238418579 L 1.999999642372131 5.938426494598389 C 2.057254076004028 6.035831928253174 2.341069221496582 6.43612003326416 3.378719568252563 6.983330249786377 C 4.43649959564209 7.541160106658936 5.940509796142578 8.069000244140625 7.7281494140625 8.509790420532227 C 11.62457942962646 9.47057056427002 16.69294929504395 9.999700546264648 21.99959945678711 9.999700546264648 M 21.99959945678711 11.99970054626465 C 9.849599838256836 11.99970054626465 -4.089355343239731e-07 9.31410026550293 -4.089355343239731e-07 6.000300407409668 L -4.089355343239731e-07 0.9999002814292908 C -4.089355343239731e-07 0.4473002851009369 0.447299599647522 2.731323149873788e-07 0.9998995661735535 2.731323149873788e-07 L 43.00019836425781 2.731323149873788e-07 C 43.55189895629883 2.731323149873788e-07 44.00009918212891 0.4473002851009369 44.00009918212891 0.9999002814292908 L 44.00009918212891 6.000300407409668 C 44.00009918212891 9.31410026550293 34.1505012512207 11.99970054626465 21.99959945678711 11.99970054626465 Z" stroke="none" fill="#333"/>
        </g>
        <g id="Ellipse_5-5" data-name="Ellipse 5" transform="translate(432 5915)" fill="#fff" stroke="#333" stroke-width="2">
          <ellipse cx="22" cy="6" rx="22" ry="6" stroke="none"/>
          <ellipse cx="22" cy="6" rx="21" ry="5" fill="none"/>
        </g>
        <g id="dollar-sign_1_5" data-name="dollar-sign (1)" transform="translate(440.986 5918.018)">
          <g id="Line_56-5" data-name="Line 56" transform="translate(0 2.56)" fill="none" stroke-linecap="round" stroke-linejoin="round">
            <path d="M1.014.423h22" stroke="none"/>
            <path d="M 24.01361083984375 0.4228515625 C 24.01173400878906 0.4811933636665344 23.98197364807129 0.5367568731307983 23.92976951599121 0.5872803926467896 C 23.87758255004883 0.637790322303772 23.8029613494873 0.683265745639801 23.71134376525879 0.7214480638504028 C 23.6197452545166 0.7596225142478943 23.51114845275879 0.7905097603797913 23.39097595214844 0.8118522763252258 C 23.27081871032715 0.8331923484802246 23.13907814025879 0.8449919819831848 23.00116539001465 0.8449919819831848 L 1.026058673858643 0.8449919819831848 C 0.8881447911262512 0.8449919819831848 0.7564021348953247 0.8331923484802246 0.6362441182136536 0.8118522763252258 C 0.5160722732543945 0.7905097603797913 0.4074754118919373 0.7596225142478943 0.3158765733242035 0.7214480638504028 C 0.2242589443922043 0.683265745639801 0.1496392339468002 0.637790322303772 0.09745109081268311 0.5872803926467896 C 0.04524881765246391 0.5367568731307983 0.01548757310956717 0.4811933636665344 0.01361083984375 0.4228515625 C 0.01173357851803303 0.3644914925098419 0.03793557733297348 0.3088766932487488 0.08693720400333405 0.2582776546478271 C 0.1359521150588989 0.2076648473739624 0.2077761888504028 0.1620732843875885 0.2971200942993164 0.1237762868404388 C 0.3864823877811432 0.08547142893075943 0.4933645725250244 0.05446714162826538 0.6124666333198547 0.03303781896829605 C 0.7315822839736938 0.01160606276243925 0.8629083633422852 -0.0002463270211592317 1.001134872436523 -0.0002463270211592317 L 23.02608489990234 -0.0002463270211592317 C 23.16431045532227 -0.0002463270211592317 23.29563903808594 0.01160606276243925 23.41475486755371 0.03303781896829605 C 23.53385734558105 0.05446714162826538 23.64073944091797 0.08547142893075943 23.73009872436523 0.1237762868404388 C 23.81944465637207 0.1620732843875885 23.89126968383789 0.2076648473739624 23.94028472900391 0.2582776546478271 C 23.98928642272949 0.3088766932487488 24.01548767089844 0.3644914925098419 24.01361083984375 0.4228515625 Z" stroke="none" fill="#333"/>
          </g>
          <g id="Path_23-5" data-name="Path 23" transform="translate(3.95)" fill="none" stroke-linecap="round" stroke-linejoin="round">
            <path d="M1.024.857l.06,3.179a.83.83,0,0,0,.285.572,2.41,2.41,0,0,0,.754.465,5.322,5.322,0,0,0,1.11.313A7.812,7.812,0,0,0,4.588,5.5,7.775,7.775,0,0,0,5.94,5.386a5.243,5.243,0,0,0,1.1-.313,2.351,2.351,0,0,0,.746-.465.813.813,0,0,0,.274-.572V1.923a.828.828,0,0,1,.276-.58A2.382,2.382,0,0,1,9.095.868,5.293,5.293,0,0,1,10.216.547a8.04,8.04,0,0,1,2.743,0,5.214,5.214,0,0,1,1.115.321,2.322,2.322,0,0,1,.746.475.811.811,0,0,1,.265.58L15.017,5.5" stroke="none"/>
            <path d="M 16.08670616149902 1.922723174095154 L 16.00997543334961 5.500863075256348 C 16.00874137878418 5.55842113494873 15.97978019714355 5.613237380981445 15.92847537994385 5.663081645965576 C 15.8771858215332 5.712912559509277 15.80355834960938 5.757776260375977 15.71297168731689 5.795444011688232 C 15.62240314483643 5.833105087280273 15.51487159729004 5.863577365875244 15.39573955535889 5.884632110595703 C 15.27662181854248 5.905685424804688 15.14589500427246 5.9173264503479 15.00891208648682 5.9173264503479 C 14.87193012237549 5.9173264503479 14.74163913726807 5.905685424804688 14.62331199645996 5.884632110595703 C 14.50497150421143 5.863577365875244 14.39858150482178 5.833105087280273 14.30942821502686 5.795444011688232 C 14.22025394439697 5.757776260375977 14.14831161499023 5.712912559509277 14.09889125823975 5.663081645965576 C 14.04945659637451 5.613237380981445 14.02255344390869 5.55842113494873 14.02347946166992 5.500863075256348 L 14.08102607727051 1.922723174095154 C 14.08338451385498 1.776190876960754 14.01528835296631 1.636382460594177 13.89013004302979 1.509065866470337 C 13.76488876342773 1.381662845611572 13.58253192901611 1.266786575317383 13.35651111602783 1.170222878456116 C 13.13037300109863 1.073609352111816 12.86057281494141 0.9953479170799255 12.56063652038574 0.9412316679954529 C 12.26061725616455 0.8870989680290222 11.93051528930664 0.857140064239502 11.58392429351807 0.857140064239502 C 11.23733615875244 0.857140064239502 10.90667533874512 0.8870989680290222 10.60563659667969 0.9412316679954529 C 10.30468463897705 0.9953479170799255 10.03341674804688 1.073610305786133 9.80546760559082 1.17022430896759 C 9.577633857727051 1.266788005828857 9.39311695098877 1.381664752960205 9.265484809875488 1.50906777381897 C 9.137940406799316 1.63638436794281 9.067219734191895 1.776192784309387 9.066825866699219 1.922723174095154 L 9.061162948608398 4.035833835601807 C 9.060463905334473 4.296334266662598 8.934159278869629 4.544353008270264 8.706701278686523 4.769762992858887 C 8.479518890380859 4.994900226593018 8.151373863220215 5.197535991668701 7.746520519256592 5.367601871490479 C 7.342039585113525 5.537512302398682 6.860849857330322 5.674970149993896 6.326992988586426 5.769926071166992 C 5.79340934753418 5.864833831787109 5.206971168518066 5.9173264503479 4.591525077819824 5.9173264503479 C 3.976078033447266 5.9173264503479 3.388653755187988 5.864833831787109 2.853290796279907 5.769926071166992 C 2.317652463912964 5.674970149993896 1.833882451057434 5.537512302398682 1.426211714744568 5.367601871490479 C 1.018167614936829 5.197535991668701 0.6862200498580933 4.994900226593018 0.4548133015632629 4.769762992858887 C 0.223125621676445 4.544353008270264 0.09216700494289398 4.296334266662598 0.08658039569854736 4.035833835601807 L 0.01841245777904987 0.857140064239502 C 0.01714673638343811 0.7981136441230774 0.04409122467041016 0.7418631315231323 0.09391113370656967 0.6906854510307312 C 0.1437448710203171 0.6394942998886108 0.2164647728204727 0.5933809876441956 0.3067264258861542 0.5546467304229736 C 0.3970062434673309 0.5159035325050354 0.5048286318778992 0.4845445156097412 0.6248390078544617 0.4628704786300659 C 0.7448623180389404 0.4411930739879608 0.8770639896392822 0.4292050898075104 1.016079068183899 0.4292050898075104 C 1.155094027519226 0.4292050898075104 1.287745594978333 0.4411930739879608 1.408582806587219 0.4628704786300659 C 1.529406189918518 0.4845445156097412 1.638405680656433 0.5159035325050354 1.73013973236084 0.5546467304229736 C 1.821854591369629 0.5933809876441956 1.896305561065674 0.6394942998886108 1.948060393333435 0.6906854510307312 C 1.99980103969574 0.7418631315231323 2.028856515884399 0.7981136441230774 2.029805660247803 0.857140064239502 L 2.080932378768921 4.035833835601807 C 2.083260297775269 4.180602073669434 2.15532112121582 4.318517208099365 2.283498764038086 4.443931102752686 C 2.411588668823242 4.569261074066162 2.595736742019653 4.682122707366943 2.822387218475342 4.776885032653809 C 3.048922061920166 4.871599674224854 3.317959785461426 4.948251724243164 3.616011142730713 5.001218318939209 C 3.913976907730103 5.054169654846191 4.241016387939453 5.083461761474609 4.583700656890869 5.083461761474609 C 4.926386833190918 5.083461761474609 5.252877235412598 5.054169654846191 5.549850463867188 5.001218318939209 C 5.846908569335938 4.948251724243164 6.114508628845215 4.871599674224854 6.339265823364258 4.776885032653809 C 6.564136505126953 4.682122707366943 6.746166229248047 4.569261074066162 6.871904373168945 4.443931102752686 C 6.997726440429688 4.318517208099365 7.067199230194092 4.180602073669434 7.066811084747314 4.035833835601807 L 7.061145305633545 1.922723174095154 C 7.060439109802246 1.658883571624756 7.186464309692383 1.406995534896851 7.415052890777588 1.1774822473526 C 7.643921375274658 0.9476874470710754 7.975549221038818 0.7403785586357117 8.385564804077148 0.5660396218299866 C 8.795961380004883 0.391538679599762 9.284747123718262 0.2501305937767029 9.827334403991699 0.1523213535547256 C 10.37020397186279 0.05446119606494904 10.96667766571045 0.0002922344719991088 11.59196376800537 0.0002922344719991088 C 12.21724891662598 0.0002922344719991088 12.81270694732666 0.05446119606494904 13.35373973846436 0.1523213535547256 C 13.89449024200439 0.2501305937767029 14.38062191009521 0.391538679599762 14.78774547576904 0.5660396218299866 C 15.19449234008789 0.7403785586357117 15.5222282409668 0.9476874470710754 15.74678516387939 1.1774822473526 C 15.97106838226318 1.406995534896851 16.09236717224121 1.658883571624756 16.08670616149902 1.922723174095154 Z" stroke="none" fill="#333"/>
          </g>
        </g>
      </g>
      <g id="Group_101" data-name="Group 101" transform="translate(31 -34)">
        <g id="Union_2-6" data-name="Union 2" transform="translate(432 5920)" fill="#fff">
          <path d="M 21.99959945678711 10.99970054626465 C 16.20948028564453 10.99970054626465 10.77833938598633 10.38821983337402 6.706639766693115 9.277900695800781 C 4.812149524688721 8.761290550231934 3.278239488601685 8.144869804382324 2.270729541778564 7.495270252227783 C 1.451289534568787 6.966920375823975 0.9999995827674866 6.436000347137451 0.9999995827674866 6.000300407409668 L 0.9999995827674866 0.9999002814292908 L 21.99959945678711 1.000000238418579 L 43.00019836425781 1.000000238418579 L 43.00009918212891 6.000300407409668 C 43.00009918212891 6.857160091400146 41.23553085327148 8.202939987182617 37.29335784912109 9.277900695800781 C 33.22153854370117 10.38821983337402 27.79010963439941 10.99970054626465 21.99959945678711 10.99970054626465 Z" stroke="none"/>
          <path d="M 21.99959945678711 9.999700546264648 C 27.30661964416504 9.999700546264648 32.37525939941406 9.47057056427002 36.27182006835938 8.509790420532227 C 38.05950927734375 8.069000244140625 39.56354904174805 7.541160106658936 40.6213493347168 6.983330249786377 C 41.65902709960938 6.43612003326416 41.94284439086914 6.035831928253174 42.00009918212891 5.93842601776123 L 42.00009918212891 2.000000238418579 L 1.999999642372131 2.000000238418579 L 1.999999642372131 5.938426494598389 C 2.057254076004028 6.035831928253174 2.341069221496582 6.43612003326416 3.378719568252563 6.983330249786377 C 4.43649959564209 7.541160106658936 5.940509796142578 8.069000244140625 7.7281494140625 8.509790420532227 C 11.62457942962646 9.47057056427002 16.69294929504395 9.999700546264648 21.99959945678711 9.999700546264648 M 21.99959945678711 11.99970054626465 C 9.849599838256836 11.99970054626465 -4.089355343239731e-07 9.31410026550293 -4.089355343239731e-07 6.000300407409668 L -4.089355343239731e-07 0.9999002814292908 C -4.089355343239731e-07 0.4473002851009369 0.447299599647522 2.731323149873788e-07 0.9998995661735535 2.731323149873788e-07 L 43.00019836425781 2.731323149873788e-07 C 43.55189895629883 2.731323149873788e-07 44.00009918212891 0.4473002851009369 44.00009918212891 0.9999002814292908 L 44.00009918212891 6.000300407409668 C 44.00009918212891 9.31410026550293 34.1505012512207 11.99970054626465 21.99959945678711 11.99970054626465 Z" stroke="none" fill="#333"/>
        </g>
        <g id="Ellipse_5-6" data-name="Ellipse 5" transform="translate(432 5915)" fill="#fff" stroke="#333" stroke-width="2">
          <ellipse cx="22" cy="6" rx="22" ry="6" stroke="none"/>
          <ellipse cx="22" cy="6" rx="21" ry="5" fill="none"/>
        </g>
        <g id="dollar-sign_1_6" data-name="dollar-sign (1)" transform="translate(440.986 5918.018)">
          <g id="Line_56-6" data-name="Line 56" transform="translate(0 2.56)" fill="none" stroke-linecap="round" stroke-linejoin="round">
            <path d="M1.014.423h22" stroke="none"/>
            <path d="M 24.01361083984375 0.4228515625 C 24.01173400878906 0.4811933636665344 23.98197364807129 0.5367568731307983 23.92976951599121 0.5872803926467896 C 23.87758255004883 0.637790322303772 23.8029613494873 0.683265745639801 23.71134376525879 0.7214480638504028 C 23.6197452545166 0.7596225142478943 23.51114845275879 0.7905097603797913 23.39097595214844 0.8118522763252258 C 23.27081871032715 0.8331923484802246 23.13907814025879 0.8449919819831848 23.00116539001465 0.8449919819831848 L 1.026058673858643 0.8449919819831848 C 0.8881447911262512 0.8449919819831848 0.7564021348953247 0.8331923484802246 0.6362441182136536 0.8118522763252258 C 0.5160722732543945 0.7905097603797913 0.4074754118919373 0.7596225142478943 0.3158765733242035 0.7214480638504028 C 0.2242589443922043 0.683265745639801 0.1496392339468002 0.637790322303772 0.09745109081268311 0.5872803926467896 C 0.04524881765246391 0.5367568731307983 0.01548757310956717 0.4811933636665344 0.01361083984375 0.4228515625 C 0.01173357851803303 0.3644914925098419 0.03793557733297348 0.3088766932487488 0.08693720400333405 0.2582776546478271 C 0.1359521150588989 0.2076648473739624 0.2077761888504028 0.1620732843875885 0.2971200942993164 0.1237762868404388 C 0.3864823877811432 0.08547142893075943 0.4933645725250244 0.05446714162826538 0.6124666333198547 0.03303781896829605 C 0.7315822839736938 0.01160606276243925 0.8629083633422852 -0.0002463270211592317 1.001134872436523 -0.0002463270211592317 L 23.02608489990234 -0.0002463270211592317 C 23.16431045532227 -0.0002463270211592317 23.29563903808594 0.01160606276243925 23.41475486755371 0.03303781896829605 C 23.53385734558105 0.05446714162826538 23.64073944091797 0.08547142893075943 23.73009872436523 0.1237762868404388 C 23.81944465637207 0.1620732843875885 23.89126968383789 0.2076648473739624 23.94028472900391 0.2582776546478271 C 23.98928642272949 0.3088766932487488 24.01548767089844 0.3644914925098419 24.01361083984375 0.4228515625 Z" stroke="none" fill="#49beaa"/>
          </g>
          <g id="Path_23-6" data-name="Path 23" transform="translate(3.95)" fill="none" stroke-linecap="round" stroke-linejoin="round">
            <path d="M1.024.857l.06,3.179a.83.83,0,0,0,.285.572,2.41,2.41,0,0,0,.754.465,5.322,5.322,0,0,0,1.11.313A7.812,7.812,0,0,0,4.588,5.5,7.775,7.775,0,0,0,5.94,5.386a5.243,5.243,0,0,0,1.1-.313,2.351,2.351,0,0,0,.746-.465.813.813,0,0,0,.274-.572V1.923a.828.828,0,0,1,.276-.58A2.382,2.382,0,0,1,9.095.868,5.293,5.293,0,0,1,10.216.547a8.04,8.04,0,0,1,2.743,0,5.214,5.214,0,0,1,1.115.321,2.322,2.322,0,0,1,.746.475.811.811,0,0,1,.265.58L15.017,5.5" stroke="none"/>
            <path d="M 16.08670616149902 1.922723174095154 L 16.00997543334961 5.500863075256348 C 16.00874137878418 5.55842113494873 15.97978019714355 5.613237380981445 15.92847537994385 5.663081645965576 C 15.8771858215332 5.712912559509277 15.80355834960938 5.757776260375977 15.71297168731689 5.795444011688232 C 15.62240314483643 5.833105087280273 15.51487159729004 5.863577365875244 15.39573955535889 5.884632110595703 C 15.27662181854248 5.905685424804688 15.14589500427246 5.9173264503479 15.00891208648682 5.9173264503479 C 14.87193012237549 5.9173264503479 14.74163913726807 5.905685424804688 14.62331199645996 5.884632110595703 C 14.50497150421143 5.863577365875244 14.39858150482178 5.833105087280273 14.30942821502686 5.795444011688232 C 14.22025394439697 5.757776260375977 14.14831161499023 5.712912559509277 14.09889125823975 5.663081645965576 C 14.04945659637451 5.613237380981445 14.02255344390869 5.55842113494873 14.02347946166992 5.500863075256348 L 14.08102607727051 1.922723174095154 C 14.08338451385498 1.776190876960754 14.01528835296631 1.636382460594177 13.89013004302979 1.509065866470337 C 13.76488876342773 1.381662845611572 13.58253192901611 1.266786575317383 13.35651111602783 1.170222878456116 C 13.13037300109863 1.073609352111816 12.86057281494141 0.9953479170799255 12.56063652038574 0.9412316679954529 C 12.26061725616455 0.8870989680290222 11.93051528930664 0.857140064239502 11.58392429351807 0.857140064239502 C 11.23733615875244 0.857140064239502 10.90667533874512 0.8870989680290222 10.60563659667969 0.9412316679954529 C 10.30468463897705 0.9953479170799255 10.03341674804688 1.073610305786133 9.80546760559082 1.17022430896759 C 9.577633857727051 1.266788005828857 9.39311695098877 1.381664752960205 9.265484809875488 1.50906777381897 C 9.137940406799316 1.63638436794281 9.067219734191895 1.776192784309387 9.066825866699219 1.922723174095154 L 9.061162948608398 4.035833835601807 C 9.060463905334473 4.296334266662598 8.934159278869629 4.544353008270264 8.706701278686523 4.769762992858887 C 8.479518890380859 4.994900226593018 8.151373863220215 5.197535991668701 7.746520519256592 5.367601871490479 C 7.342039585113525 5.537512302398682 6.860849857330322 5.674970149993896 6.326992988586426 5.769926071166992 C 5.79340934753418 5.864833831787109 5.206971168518066 5.9173264503479 4.591525077819824 5.9173264503479 C 3.976078033447266 5.9173264503479 3.388653755187988 5.864833831787109 2.853290796279907 5.769926071166992 C 2.317652463912964 5.674970149993896 1.833882451057434 5.537512302398682 1.426211714744568 5.367601871490479 C 1.018167614936829 5.197535991668701 0.6862200498580933 4.994900226593018 0.4548133015632629 4.769762992858887 C 0.223125621676445 4.544353008270264 0.09216700494289398 4.296334266662598 0.08658039569854736 4.035833835601807 L 0.01841245777904987 0.857140064239502 C 0.01714673638343811 0.7981136441230774 0.04409122467041016 0.7418631315231323 0.09391113370656967 0.6906854510307312 C 0.1437448710203171 0.6394942998886108 0.2164647728204727 0.5933809876441956 0.3067264258861542 0.5546467304229736 C 0.3970062434673309 0.5159035325050354 0.5048286318778992 0.4845445156097412 0.6248390078544617 0.4628704786300659 C 0.7448623180389404 0.4411930739879608 0.8770639896392822 0.4292050898075104 1.016079068183899 0.4292050898075104 C 1.155094027519226 0.4292050898075104 1.287745594978333 0.4411930739879608 1.408582806587219 0.4628704786300659 C 1.529406189918518 0.4845445156097412 1.638405680656433 0.5159035325050354 1.73013973236084 0.5546467304229736 C 1.821854591369629 0.5933809876441956 1.896305561065674 0.6394942998886108 1.948060393333435 0.6906854510307312 C 1.99980103969574 0.7418631315231323 2.028856515884399 0.7981136441230774 2.029805660247803 0.857140064239502 L 2.080932378768921 4.035833835601807 C 2.083260297775269 4.180602073669434 2.15532112121582 4.318517208099365 2.283498764038086 4.443931102752686 C 2.411588668823242 4.569261074066162 2.595736742019653 4.682122707366943 2.822387218475342 4.776885032653809 C 3.048922061920166 4.871599674224854 3.317959785461426 4.948251724243164 3.616011142730713 5.001218318939209 C 3.913976907730103 5.054169654846191 4.241016387939453 5.083461761474609 4.583700656890869 5.083461761474609 C 4.926386833190918 5.083461761474609 5.252877235412598 5.054169654846191 5.549850463867188 5.001218318939209 C 5.846908569335938 4.948251724243164 6.114508628845215 4.871599674224854 6.339265823364258 4.776885032653809 C 6.564136505126953 4.682122707366943 6.746166229248047 4.569261074066162 6.871904373168945 4.443931102752686 C 6.997726440429688 4.318517208099365 7.067199230194092 4.180602073669434 7.066811084747314 4.035833835601807 L 7.061145305633545 1.922723174095154 C 7.060439109802246 1.658883571624756 7.186464309692383 1.406995534896851 7.415052890777588 1.1774822473526 C 7.643921375274658 0.9476874470710754 7.975549221038818 0.7403785586357117 8.385564804077148 0.5660396218299866 C 8.795961380004883 0.391538679599762 9.284747123718262 0.2501305937767029 9.827334403991699 0.1523213535547256 C 10.37020397186279 0.05446119606494904 10.96667766571045 0.0002922344719991088 11.59196376800537 0.0002922344719991088 C 12.21724891662598 0.0002922344719991088 12.81270694732666 0.05446119606494904 13.35373973846436 0.1523213535547256 C 13.89449024200439 0.2501305937767029 14.38062191009521 0.391538679599762 14.78774547576904 0.5660396218299866 C 15.19449234008789 0.7403785586357117 15.5222282409668 0.9476874470710754 15.74678516387939 1.1774822473526 C 15.97106838226318 1.406995534896851 16.09236717224121 1.658883571624756 16.08670616149902 1.922723174095154 Z" stroke="none" fill="#49beaa"/>
          </g>
        </g>
      </g>
    </g>
    <g id="Group_103" data-name="Group 103" transform="translate(-41 -31)">
      <g id="Ellipse_7" data-name="Ellipse 7" transform="translate(898 1412)" fill="#fff" stroke="#333" stroke-width="3">
        <circle cx="19" cy="19" r="19" stroke="none"/>
        <circle cx="19" cy="19" r="17.5" fill="none"/>
      </g>
      <g id="dollar-sign_1_7" data-name="dollar-sign (1)" transform="translate(905 1419)">
        <line id="Line_57" data-name="Line 57" y2="22" transform="translate(12 1)" fill="none" stroke="#ee4b6a" stroke-linecap="round" stroke-linejoin="round" stroke-width="2"/>
        <path id="Path_24" data-name="Path 24" d="M17,5H9.5a3.5,3.5,0,0,0,0,7h5a3.5,3.5,0,1,1,0,7H6" fill="none" stroke="#ee4b6a" stroke-linecap="round" stroke-linejoin="round" stroke-width="2"/>
      </g>
    </g>
  </g>
</svg>
