<svg xmlns="http://www.w3.org/2000/svg" width="28.976" height="15" viewBox="0 0 28.976 15">
  <g id="Group_130" data-name="Group 130" transform="translate(-819.512 -193)">
    <g id="Union_5" data-name="Union 5" transform="translate(819.512 193)" fill="none" stroke-linejoin="round">
      <path d="M7.475,15a1,1,0,0,1-1-1V12.893L5.29,12H4.475a1,1,0,0,1-1-1V9h-1v.5a1,1,0,0,1-1,1H1a1,1,0,0,1-1-1v-4a1,1,0,0,1,1-1h.475a1,1,0,0,1,1,1V6h1V4a1,1,0,0,1,1-1h4a1,1,0,0,1-1-1V1a1,1,0,0,1,1-1h8a1,1,0,0,1,1,1V2a1,1,0,0,1-1,1h4a1,1,0,0,1,1,1V5h2a1,1,0,0,1,1,1V8h1.5V6.5a1,1,0,0,1,1-1h1a1,1,0,0,1,1,1v6a1,1,0,0,1-1,1h-1a1,1,0,0,1-1-1V11h-1.5v3a1,1,0,0,1-1,1Z" stroke="none"/>
      <path d="M 23.47550010681152 14.00040054321289 L 23.47550010681152 10.99979972839355 C 23.47550010681152 10.44752025604248 23.92321968078613 9.999799728393555 24.47550010681152 9.999799728393555 L 25.97489929199219 9.999799728393555 C 26.52717971801758 9.999799728393555 26.97489929199219 10.44752025604248 26.97489929199219 10.99979972839355 L 26.97480010986328 12.5 L 27.97550010681152 12.50010013580322 L 27.97470092773438 6.499900341033936 L 26.97489929199219 6.499800205230713 L 26.97489929199219 8.000100135803223 C 26.97489929199219 8.552380561828613 26.52717971801758 9.000100135803223 25.97489929199219 9.000100135803223 L 24.47550010681152 9.000100135803223 C 23.92321968078613 9.000100135803223 23.47550010681152 8.552380561828613 23.47550010681152 8.000100135803223 L 23.47470092773438 6.000400066375732 L 21.47489929199219 6.000400066375732 C 20.92262077331543 6.000400066375732 20.47489929199219 5.552680015563965 20.47489929199219 5.000400066375732 L 20.47500038146973 3.999700307846069 L 16.47540092468262 3.999700307846069 C 15.92312049865723 3.999700307846069 15.47535037994385 3.552030086517334 15.47535037994385 2.999750137329102 C 15.47535037994385 2.447470188140869 15.923020362854 1.999800205230713 16.47529983520508 1.999800205230713 L 16.47540092468262 1.000000238418579 L 8.475399971008301 0.999900221824646 L 8.475299835205078 1.99970018863678 C 9.027580261230469 1.99970018863678 9.475299835205078 2.447420120239258 9.475299835205078 2.999700307846069 C 9.475299835205078 3.551980257034302 9.027580261230469 3.999700307846069 8.475299835205078 3.999700307846069 L 4.474900245666504 3.999600172042847 L 4.474900245666504 6.000300407409668 C 4.474900245666504 6.5525803565979 4.027180194854736 7.000300407409668 3.474900007247925 7.000300407409668 L 2.475000143051147 7.000300407409668 C 1.922720074653625 7.000300407409668 1.475000023841858 6.5525803565979 1.475000023841858 6.000300407409668 L 1.475100040435791 5.5 L 1 5.499900341033936 L 0.9999000430107117 9.500300407409668 L 1.475000023841858 9.500400543212891 L 1.475000023841858 9 C 1.475000023841858 8.447720527648926 1.922720074653625 8 2.475000143051147 8 L 3.474900007247925 8 C 4.027180194854736 8 4.474900245666504 8.447720527648926 4.474900245666504 9 L 4.474800109863281 10.99970054626465 L 5.290060043334961 10.99970054626465 C 5.507200241088867 10.99970054626465 5.718440055847168 11.07038021087646 5.891860008239746 11.2010498046875 L 7.077300071716309 12.09430980682373 C 7.328050136566162 12.28326034545898 7.475500106811523 12.57900047302246 7.475500106811523 12.89296054840088 L 7.475399971008301 14.00030040740967 L 23.47550010681152 14.00040054321289 M 23.47470092773438 15.00030040740967 L 7.475399971008301 15.00030040740967 C 6.922800064086914 15.00030040740967 6.475500106811523 14.55210018157959 6.475500106811523 14.00040054321289 L 6.475500106811523 12.89296054840088 L 5.290060043334961 11.99970054626465 L 4.474800109863281 11.99970054626465 C 3.923099994659424 11.99970054626465 3.474900007247925 11.55240058898926 3.474900007247925 10.99979972839355 L 3.474900007247925 9 L 2.475000143051147 9 L 2.475000143051147 9.500400543212891 C 2.475000143051147 10.05210018157959 2.027699947357178 10.50030040740967 1.475100040435791 10.50030040740967 L 0.9999000430107117 10.50030040740967 C 0.4473000466823578 10.50030040740967 5.340575981449547e-08 10.05210018157959 5.340575981449547e-08 9.500400543212891 L 5.340575981449547e-08 5.499900341033936 C 5.340575981449547e-08 4.947300434112549 0.4473000466823578 4.5 0.9999000430107117 4.5 L 1.475100040435791 4.5 C 2.027699947357178 4.5 2.475000143051147 4.947300434112549 2.475000143051147 5.499900341033936 L 2.475000143051147 6.000300407409668 L 3.474900007247925 6.000300407409668 L 3.474900007247925 3.999600172042847 C 3.474900007247925 3.447900295257568 3.923099994659424 2.999700307846069 4.474800109863281 2.999700307846069 L 8.475299835205078 2.999700307846069 C 7.922699928283691 2.999700307846069 7.475399971008301 2.5524001121521 7.475399971008301 1.999800205230713 L 7.475399971008301 0.999900221824646 C 7.475399971008301 0.4473001956939697 7.922699928283691 2.037048290048915e-07 8.475299835205078 2.037048290048915e-07 L 16.47540092468262 2.037048290048915e-07 C 17.027099609375 2.037048290048915e-07 17.47529983520508 0.4473001956939697 17.47529983520508 0.999900221824646 L 17.47529983520508 1.999800205230713 C 17.47529983520508 2.5524001121521 17.027099609375 2.999700307846069 16.47540092468262 2.999700307846069 L 20.47500038146973 2.999700307846069 C 21.0275993347168 2.999700307846069 21.47489929199219 3.447900295257568 21.47489929199219 3.999600172042847 L 21.47489929199219 5.000400066375732 L 23.47470092773438 5.000400066375732 C 24.02729988098145 5.000400066375732 24.47550010681152 5.447700023651123 24.47550010681152 6.000300407409668 L 24.47550010681152 8.000100135803223 L 25.97489929199219 8.000100135803223 L 25.97489929199219 6.499800205230713 C 25.97489929199219 5.948100090026855 26.42309951782227 5.499900341033936 26.97480010986328 5.499900341033936 L 27.97470092773438 5.499900341033936 C 28.52729988098145 5.499900341033936 28.97550010681152 5.948100090026855 28.97550010681152 6.499800205230713 L 28.97550010681152 12.50010013580322 C 28.97550010681152 13.05270004272461 28.52729988098145 13.5 27.97470092773438 13.5 L 26.97480010986328 13.5 C 26.42309951782227 13.5 25.97489929199219 13.05270004272461 25.97489929199219 12.50010013580322 L 25.97489929199219 10.99979972839355 L 24.47550010681152 10.99979972839355 L 24.47550010681152 14.00040054321289 C 24.47550010681152 14.55210018157959 24.02729988098145 15.00030040740967 23.47470092773438 15.00030040740967 Z" stroke="none" fill="#333"/>
    </g>
    <g id="settings" transform="translate(828.389 197.219)">
      <circle id="Ellipse_13" data-name="Ellipse 13" cx="1.171" cy="1.171" r="1.171" transform="translate(3.441 3.441)" fill="none" stroke="#000" stroke-linecap="round" stroke-linejoin="round" stroke-width="0.75"/>
      <path id="Path_42" data-name="Path 42" d="M7.041,5.6a.542.542,0,0,0,.108.6l.02.02a.657.657,0,1,1-.929.929l-.02-.02a.546.546,0,0,0-.926.387v.056a.657.657,0,0,1-1.313,0v-.03a.568.568,0,0,0-.952-.387l-.02.02A.657.657,0,1,1,2.08,6.24l.02-.02a.546.546,0,0,0-.387-.926H1.657a.657.657,0,1,1,0-1.313h.03a.568.568,0,0,0,.387-.952l-.02-.02a.657.657,0,1,1,.929-.929L3,2.1a.542.542,0,0,0,.6.108h.026a.542.542,0,0,0,.328-.5V1.657a.657.657,0,1,1,1.313,0v.03a.546.546,0,0,0,.926.387l.02-.02a.657.657,0,1,1,.929.929L7.123,3a.542.542,0,0,0-.108.6v.026a.542.542,0,0,0,.5.328h.056a.657.657,0,0,1,0,1.313h-.03A.542.542,0,0,0,7.041,5.6Z" fill="none" stroke="#000" stroke-linecap="round" stroke-linejoin="round" stroke-width="0.75"/>
    </g>
  </g>
</svg>
