<svg xmlns="http://www.w3.org/2000/svg" width="21.204" height="10.433" viewBox="0 0 21.204 10.433">
  <g id="Group_129" data-name="Group 129" transform="translate(-789.808 -194.532)">
    <g id="Group_128" data-name="Group 128" transform="translate(-1308.003 -3593.468)">
      <path id="Path_37" data-name="Path 37" d="M2099.311,3796.515a7.722,7.722,0,0,0,4.192-2.024" transform="translate(-0.937 1.357)" fill="none" stroke="#333" stroke-linecap="round" stroke-width="1"/>
      <g id="Rectangle_69" data-name="Rectangle 69" transform="translate(2100.986 3795.344) rotate(-43)" fill="#333" stroke="#333" stroke-linecap="round" stroke-width="1">
        <rect width="6.707" height="2.683" rx="1.341" stroke="none"/>
        <rect x="0.5" y="0.5" width="5.707" height="1.683" rx="0.841" fill="none"/>
      </g>
      <g id="Polygon_3" data-name="Polygon 3" transform="matrix(0.891, 0.454, -0.454, 0.891, 2105.646, 3788)" fill="#333">
        <path d="M 5.953778743743896 3.524262189865112 L 2.094658613204956 3.524262189865112 C 1.920098543167114 3.524262189865112 1.761098504066467 3.435612201690674 1.669318556785583 3.287112236022949 L 1.060958504676819 2.302752256393433 C 0.9533185362815857 2.128582239151001 0.9844885468482971 1.962912201881409 1.012648582458496 1.879662156105042 C 1.04080855846405 1.796422243118286 1.116608500480652 1.645852208137512 1.307868599891663 1.572802186012268 L 3.845798492431641 0.6033822298049927 C 3.902978658676147 0.5815421938896179 3.963008642196655 0.5704622268676758 4.024218559265137 0.5704622268676758 C 4.085428714752197 0.5704622268676758 4.145448684692383 0.5815421938896179 4.202628612518311 0.6033722162246704 L 6.7405686378479 1.572802186012268 C 6.931838512420654 1.645852208137512 7.007638454437256 1.796422243118286 7.0357985496521 1.879672169685364 C 7.063958644866943 1.962922215461731 7.095118522644043 2.128582239151001 6.987478733062744 2.30274224281311 L 6.379108428955078 3.287122249603271 C 6.287338733673096 3.435612201690674 6.12833833694458 3.524262189865112 5.953778743743896 3.524262189865112 Z" stroke="none"/>
        <path d="M 4.024168491363525 1.070442199707031 L 4.024218559265137 1.070462226867676 L 1.486278533935547 2.039882183074951 L 2.094658374786377 3.024262189865112 L 5.953788757324219 3.02425217628479 L 6.562148571014404 2.039882183074951 L 4.024168491363525 1.070442199707031 M 4.024217128753662 0.0704646110534668 C 4.145183563232422 0.0704646110534668 4.266148567199707 0.0924072265625 4.381038665771484 0.1362922191619873 L 6.918978691101074 1.105712175369263 C 7.505178451538086 1.329622268676758 7.742698669433594 2.031822204589844 7.412808418273926 2.565612316131592 L 6.804438591003418 3.549982070922852 C 6.622228622436523 3.844802141189575 6.300358772277832 4.024262428283691 5.953778266906738 4.024262428283691 L 2.094658374786377 4.024262428283691 C 1.748078346252441 4.024262428283691 1.42620849609375 3.844802141189575 1.243998527526855 3.549982070922852 L 0.6356287002563477 2.565612316131592 C 0.3057284355163574 2.031822204589844 0.5432586669921875 1.329622268676758 1.129458427429199 1.105712175369263 L 3.667388439178467 0.1362922191619873 C 3.782283782958984 0.0924072265625 3.903251171112061 0.0704646110534668 4.024217128753662 0.0704646110534668 Z" stroke="none" fill="#333"/>
      </g>
      <path id="Path_38" data-name="Path 38" d="M2109.081,3792.968s-2.4,2.927-3.774,2.935a5.494,5.494,0,0,1-2.749-.982" transform="translate(0.172 0.837)" fill="none" stroke="#333" stroke-width="0.75"/>
      <path id="Path_39" data-name="Path 39" d="M2107.643,3793.083s-1.552-.24-1.8.091-.742,1.25-.742,1.25" transform="translate(1.041 0.848)" fill="none" stroke="#333" stroke-width="0.5"/>
      <path id="Path_40" data-name="Path 40" d="M2107.9,3790.625s2.227-1.839,3.564-1.591a36.16,36.16,0,0,1,3.674,1.035" transform="translate(2.5 -0.34)" fill="none" stroke="#333" stroke-linecap="round" stroke-width="1.25"/>
      <g id="Path_41" data-name="Path 41" transform="translate(2110.016 3788.247) rotate(48)" fill="none" stroke-linecap="round" stroke-linejoin="bevel">
        <path d="M.508,0H2.879l.548,2.285H0Z" stroke="none"/>
        <path d="M 1.310051918029785 0.9999953508377075 L 1.246694326400757 1.285015344619751 L 2.159135103225708 1.285015344619751 L 2.090733528137207 0.9999953508377075 L 1.310051918029785 0.9999953508377075 M 0.5079381465911865 -4.529953002929688e-06 L 2.879137992858887 -4.529953002929688e-06 L 3.427518129348755 2.285015344619751 L -1.9073486328125e-06 2.285015344619751 L 0.5079381465911865 -4.529953002929688e-06 Z" stroke="none" fill="#333"/>
      </g>
    </g>
    <path id="droplet" d="M5.064,2.69l.749.915a1.5,1.5,0,0,1,0,1.829.93.93,0,0,1-1.5,0,1.5,1.5,0,0,1,0-1.829Z" transform="translate(804.566 196.248)" fill="none" stroke="#000" stroke-linecap="round" stroke-linejoin="round" stroke-width="0.5"/>
  </g>
</svg>
