<svg xmlns="http://www.w3.org/2000/svg" width="27.029" height="13.933" viewBox="0 0 27.029 13.933">
  <g id="Group_126" data-name="Group 126" transform="translate(-2028.418 -3781.033)">
    <path id="Path_31" data-name="Path 31" d="M2029,3788s1.96-12.933,12.933-12.933S2054.866,3788,2054.866,3788Z" transform="translate(0 6.467)" fill="none" stroke="#333" stroke-width="1"/>
    <g id="Union_3" data-name="Union 3" transform="translate(2034.055 3790.331) rotate(-67)" fill="#333">
      <path d="M 1.999800086021423 9.499899864196777 C 1.172810077667236 9.499899864196777 0.5000000596046448 8.827090263366699 0.5000000596046448 8.000100135803223 C 0.5000000596046448 7.425829887390137 0.8200300931930542 6.910470008850098 1.335200071334839 6.655159950256348 L 1.570950031280518 6.538330078125 L 1.608160138130188 6.277860164642334 L 1.999799728393555 3.536020517349243 L 2.391410112380981 6.277659893035889 L 2.428630113601685 6.538229942321777 L 2.664510011672974 6.655029773712158 C 3.179610013961792 6.910099983215332 3.499600172042847 7.42549991607666 3.499600172042847 8.000100135803223 C 3.499600172042847 8.827090263366699 2.82679009437561 9.499899864196777 1.999800086021423 9.499899864196777 Z" stroke="none"/>
      <path d="M 1.999800086021423 8.999899864196777 C 2.551090002059937 8.999899864196777 2.999600172042847 8.551389694213867 2.999600172042847 8.000100135803223 C 2.999600172042847 7.61693000793457 2.786180019378662 7.273230075836182 2.442630052566528 7.103109836578369 L 1.999811172485352 6.883826732635498 L 1.557230114936829 7.10315990447998 C 1.213520050048828 7.273499965667725 1.00000011920929 7.617189884185791 1.00000011920929 8.000100135803223 C 1.00000011920929 8.551389694213867 1.448510050773621 8.999899864196777 1.999800086021423 8.999899864196777 M 1.999800086021423 9.999899864196777 C 0.8955000638961792 9.999899864196777 8.602142287372772e-08 9.104399681091309 8.602142287372772e-08 8.000100135803223 C 8.602142287372772e-08 7.214200019836426 0.4536000788211823 6.534039974212646 1.113180041313171 6.207159996032715 L 1.999800086021423 -6.790160966829717e-08 L 2.886389970779419 6.20695972442627 C 3.546310186386108 6.533740043640137 3.999600172042847 7.21399974822998 3.999600172042847 8.000100135803223 C 3.999600172042847 9.104399681091309 3.105000019073486 9.999899864196777 1.999800086021423 9.999899864196777 Z" stroke="none" fill="#333"/>
    </g>
    <path id="Path_32" data-name="Path 32" d="M2041.933,3782.7v2.4" fill="none" stroke="#333" stroke-width="1"/>
    <path id="Path_33" data-name="Path 33" d="M2041.933,3782.7v2.4" transform="translate(-2183.632 4638.305) rotate(-73)" fill="none" stroke="#333" stroke-width="1"/>
    <path id="Path_34" data-name="Path 34" d="M0,2.4V0" transform="translate(2050.784 3792.251) rotate(-107)" fill="none" stroke="#333" stroke-width="1"/>
    <path id="Path_35" data-name="Path 35" d="M0,2.4V0" transform="translate(2048.055 3787.468) rotate(-133)" fill="none" stroke="#333" stroke-width="1"/>
    <path id="Path_36" data-name="Path 36" d="M0,0V2.4" transform="translate(2034.055 3785.83) rotate(-47)" fill="none" stroke="#333" stroke-width="1"/>
  </g>
</svg>
